<?xml version="1.0" encoding="UTF-8"?>
<svg width="669px" height="510px" viewBox="0 0 669 510" version="1.1" xmlns="http://www.w3.org/2000/svg" xmlns:xlink="http://www.w3.org/1999/xlink">
    <!-- Generator: Sketch 44.1 (41455) - http://www.bohemiancoding.com/sketch -->
    <title>South_Carolina_Presidential_Election_Results_by_County,_2008</title>
    <desc>Created with Sketch.</desc>
    <defs></defs>
    <g id="Welcome" stroke="none" stroke-width="1" fill="none" fill-rule="evenodd">
        <g id="Artboard-12" transform="translate(-66.000000, -224.000000)" stroke="#000000" fill-rule="nonzero">
            <g id="South_Carolina_Presidential_Election_Results_by_County,_2008" transform="translate(67.000000, 225.000000)">
                <polyline id="SC_Pickens" fill="#FFFFFF" opacity="0.319802989" points="70.5488554 47.7127009 95.9656168 44.7620851 101.951293 52.1642363 111.513027 73.1520136 112.961417 77.0262741 114.063698 82.6324281 113.410018 83.4405858 70.7282641 122.478336 57.4367081 86.3912472 48.5286984 64.3130692 50.8613998 55.8076142 53.1685007 52.1642363 70.5488554 47.7127009"></polyline>
                <polyline id="SC_Oconee" fill="#FFFFFF" opacity="0.319802989" points="53.1685007 52.1642363 50.8613998 55.8076142 48.5286984 64.3130692 57.4367081 86.3912472 70.7282641 122.478336 53.6299711 149.020907 45.2474102 147.853522 36.9673654 142.080612 2.6682176 120.977394 0.0022079872 116.525813 2.20683849 104.030701 11.089202 87.8921897 23.3425695 78.3604604 26.2393029 65.1853989 39.0694342 58.976301 53.1685007 52.1642363"></polyline>
                <polyline id="SC_Beaufort" fill="#FFFFFF" opacity="0.319802989" points="390.713099 396.884213 444.430532 424.542854 452.402938 436.152846 453.107887 437.538347 453.505219 439.501101 453.210426 441.989906 451.64672 450.48248 450.326515 451.932154 416.181107 487.557409 408.272817 493.971789 400.121048 500.155218 396.660329 497.384193 380.074684 484.080901 377.895768 480.565799 376.729395 476.80698 376.89598 475.921793 378.62634 468.647918 385.957889 462.272086 393.186831 454.536377 397.006391 449.507498 397.980556 444.927687 397.929241 434.305488 392.725452 414.703258 392.033304 413.125309 389.610795 409.55896 385.919375 404.927834 390.713099 396.884213"></polyline>
                <polyline id="SC_Hampton" fill="#FFFFFF" opacity="0.319802989" points="390.713099 396.884213 385.919375 404.927834 382.445877 412.099035 379.959345 411.521714 375.844991 410.020771 374.704264 406.903399 375.165666 404.530127 374.704264 402.143929 369.679861 397.461511 363.96331 393.753984 361.130646 396.306938 330.804844 432.67627 316.359738 426.890548 310.399662 402.72125 313.014403 401.464047 318.961632 397.461511 324.729407 387.698853 325.831756 379.822011 326.229089 373.715566 328.600282 367.108806 330.445935 364.568732 331.996841 363.119082 347.262304 349.661754 390.713099 396.884213"></polyline>
                <polyline id="SC_Jasper" fill="#FFFFFF" opacity="0.319802989" points="385.919375 404.927834 389.610795 409.55896 392.033304 413.125309 392.725452 414.703258 397.929241 434.305488 397.980556 444.927687 397.006391 449.507498 393.186831 454.536377 385.957889 462.272086 378.62634 468.647918 376.89598 475.921793 376.729395 476.80698 377.895768 480.565799 380.074684 484.080901 396.660329 497.384193 400.121048 500.155218 400.185095 507.903739 374.486386 503.054474 366.680544 500.039731 366.039733 499.411119 364.245303 492.239896 362.937922 485.633136 362.22015 482.4003 360.42572 473.612625 345.762713 443.837286 333.458053 433.664064 330.804844 432.67627 361.130646 396.306938 363.96331 393.753984 369.679861 397.461511 374.704264 402.143929 375.165666 404.530127 374.704264 406.903399 375.844991 410.020771 379.959345 411.521714 382.445877 412.099035 385.919375 404.927834"></polyline>
                <polyline id="SC_Marion" fill="#FFFFFF" opacity="0.319802989" points="521.847259 117.74458 523.398164 114.088368 530.896299 106.237218 538.022771 103.042862 542.175525 102.234681 570.181426 99.4636333 577.24376 103.915192 567.425723 135.319885 563.542071 142.196054 557.825543 150.226795 557.364118 151.265972 557.940859 156.256302 558.466399 158.090825 572.347587 178.963116 579.730338 188.918198 584.985487 195.101605 565.746633 186.031686 564.118812 183.068282 538.663627 163.992011 537.26653 162.60651 535.061922 158.437195 520.462984 127.1608 519.886243 125.942078 519.886243 125.313465 521.847259 117.74458"></polyline>
                <polyline id="SC_Dillon" fill="#FFFFFF" opacity="0.319802989" points="523.628865 51.4201823 583.53712 95.1147276 577.24376 103.915192 570.181426 99.4636333 542.175525 102.234681 538.022771 103.042862 530.896299 106.237218 523.398164 114.088368 521.847259 117.74458 508.376248 108.610513 523.628865 51.4201823"></polyline>
                <polyline id="SC_Horry" fill="#FFFFFF" opacity="0.319802989" points="577.24376 103.915192 583.53712 95.1147276 650.43077 142.94013 667.926464 155.435287 662.274028 157.628946 651.353666 164.171602 646.213855 168.033028 639.292507 174.691125 638.638805 175.38391 635.934395 178.321669 634.665459 179.784153 632.653129 182.439692 629.87178 186.083024 629.051447 187.186305 620.861209 199.784091 616.003461 209.097727 614.273078 212.433192 584.985487 195.101605 579.730338 188.918198 572.347587 178.963116 558.466399 158.090825 557.940859 156.256302 557.364118 151.265972 557.825543 150.226795 563.542071 142.196054 567.425723 135.319885 577.24376 103.915192"></polyline>
                <polyline id="SC_Charleston" fill="#FFFFFF" opacity="0.319802989" points="564.593105 281.836436 588.664039 295.011498 582.319432 313.57462 576.436318 315.06275 565.695364 317.384776 551.122072 332.65089 541.201452 347.108846 520.79627 370.110691 497.353347 395.909231 495.904957 396.486506 494.751407 397.12793 490.239721 399.603855 479.729491 407.236935 474.359002 412.496742 474.29491 412.432593 473.205452 411.521714 464.707552 415.216406 463.207916 417.127891 464.771645 418.513392 464.951099 418.911076 464.771645 420.129776 463.733479 420.424876 461.144362 419.770595 455.286825 411.637201 447.147811 393.484575 442.059362 384.56867 445.071434 370.059376 444.661256 362.144099 460.888015 361.515464 478.845088 363.170374 480.190938 363.016429 485.446019 350.816327 486.727777 343.465513 474.525679 329.63617 490.944693 337.807999 504.979598 343.63227 509.593891 356.178741 511.606221 357.102432 512.952026 356.653387 514.041507 355.652781 528.601953 331.496317 532.190858 319.642607 540.16324 302.413649 559.863473 284.325196 564.593105 281.836436"></polyline>
                <polyline id="SC_Dorchester" fill="#FFFFFF" opacity="0.319802989" points="439.175429 295.883851 441.48253 297.423296 450.211176 307.160308 448.826902 310.688153 447.545166 312.189118 452.005606 315.255221 474.525679 329.63617 486.727777 343.465513 485.446019 350.816327 480.190938 363.016429 478.845088 363.170374 460.888015 361.515464 444.661256 362.144099 441.713253 333.125581 441.07242 331.496317 439.470245 330.290429 439.124182 330.290429 422.423198 331.598947 413.169058 333.702833 408.849604 333.048574 408.22157 332.702205 383.02271 317.962029 417.962737 286.403413 418.654885 286.980734 419.359834 287.955716 419.680273 289.302737 419.769989 291.073111 420.154521 292.291833 421.782297 294.780615 423.294756 295.588796 430.331443 297.269352 439.175429 295.883851"></polyline>
                <polyline id="SC_Berkeley" fill="#FFFFFF" opacity="0.319802989" points="467.886279 250.726843 470.372834 248.699872 471.398245 248.404817 482.446747 246.968047 486.317599 247.314416 496.315158 253.151476 500.929406 256.679344 502.94169 259.617148 503.941478 260.438163 518.258422 268.186707 530.729691 272.279084 564.593105 281.836436 559.863473 284.325196 540.16324 302.413649 532.190858 319.642607 528.601953 331.496317 514.041507 355.652781 512.952026 356.653387 511.606221 357.102432 509.593891 356.178741 504.979598 343.63227 490.944693 337.807999 474.525679 329.63617 452.005606 315.255221 447.545166 312.189118 448.826902 310.688153 450.211176 307.160308 441.48253 297.423296 439.175429 295.883851 453.043771 262.157199 467.886279 250.726843"></polyline>
                <polyline id="SC_Georgetown" fill="#FFFFFF" opacity="0.319802989" points="565.746633 186.031686 584.985487 195.101605 614.273078 212.433192 605.723931 228.866736 605.326576 229.905868 604.390949 232.330478 604.121802 233.036051 604.044841 233.30546 603.980748 233.433759 601.225046 243.209228 600.866137 244.825612 600.404712 247.13478 600.28935 247.660786 599.827949 256.384266 599.699786 260.9641 599.545978 268.520242 599.481863 268.763959 599.545978 268.815297 599.892018 270.89356 599.943288 271.419589 601.968464 276.345769 600.81489 282.118657 600.00738 283.555473 594.329298 291.483584 588.664039 295.011498 564.593105 281.836436 530.729691 272.279084 529.806818 269.96987 529.870934 266.903835 538.535442 247.596637 554.146945 219.091221 555.800389 203.376086 557.594819 198.796297 562.978107 187.468525 563.772772 186.762951 565.746633 186.031686"></polyline>
                <polyline id="SC_Clarendon" fill="#FFFFFF" opacity="0.319802989" points="472.500526 174.11385 487.522465 181.913709 467.886279 250.726843 453.043771 262.157199 439.636853 266.557466 435.766024 267.314331 433.984395 267.134741 429.741856 265.762051 424.217628 262.105907 419.885374 257.949427 412.822995 249.508144 405.376129 236.384374 420.51343 212.959176 445.814807 196.782183 472.500526 174.11385"></polyline>
                <polyline id="SC_Williamsburg" fill="#FFFFFF" opacity="0.319802989" points="564.118812 183.068282 565.746633 186.031686 563.772772 186.762951 562.978107 187.468525 557.594819 198.796297 555.800389 203.376086 554.146945 219.091221 538.535442 247.596637 529.870934 266.903835 529.806818 269.96987 530.729691 272.279084 518.258422 268.186707 503.941478 260.438163 502.94169 259.617148 500.929406 256.679344 496.315158 253.151476 486.317599 247.314416 482.446747 246.968047 471.398245 248.404817 470.372834 248.699872 467.886279 250.726843 487.522465 181.913709 499.365631 188.225391 509.875884 190.008622 541.829508 190.701384 548.879064 188.225391 549.968499 186.365244 556.454069 181.387771 557.42821 180.990064 560.132666 181.15682 564.118812 183.068282"></polyline>
                <polyline id="SC_Florence" fill="#FFFFFF" opacity="0.319802989" points="504.902774 108.020403 508.376248 108.610513 521.847259 117.74458 519.886243 125.313465 519.886243 125.942078 520.462984 127.1608 535.061922 158.437195 537.26653 162.60651 538.663627 163.992011 564.118812 183.068282 560.132666 181.15682 557.42821 180.990064 556.454069 181.387771 549.968499 186.365244 548.879064 188.225391 541.829508 190.701384 509.875884 190.008622 499.365631 188.225391 487.522465 181.913709 472.500526 174.11385 466.207165 158.090825 455.466257 153.472488 482.908195 123.979324 495.610164 111.317343 504.902774 108.020403"></polyline>
                <polyline id="SC_Marlboro" fill="#FFFFFF" opacity="0.319802989" points="454.774154 31.9975425 486.727777 26.7890729 521.795989 50.1501681 523.628865 51.4201823 508.376248 108.610513 504.902774 108.020403 504.902774 107.378956 500.86529 97.1545332 498.737621 93.1006365 493.649103 91.0736882 492.828815 91.125003 492.444306 91.3174509 491.982858 91.0736882 475.858684 78.7196644 475.589514 78.296334 475.217782 75.6407729 475.512598 74.8325696 454.774154 31.9975425"></polyline>
                <polyline id="SC_Darlington" fill="#FFFFFF" opacity="0.319802989" points="475.512598 74.8325696 475.217782 75.6407729 475.589514 78.296334 475.858684 78.7196644 491.982858 91.0736882 492.444306 91.3174509 492.828815 91.125003 493.649103 91.0736882 498.737621 93.1006365 500.86529 97.1545332 504.902774 107.378956 504.902774 108.020403 495.610164 111.317343 482.908195 123.979324 455.466257 153.472488 454.940763 153.587929 443.853769 145.711133 441.828615 143.055595 445.584128 138.090888 446.276231 130.970934 440.79045 122.06784 435.137991 116.410371 430.56219 115.02487 418.847117 112.767016 418.847117 112.420692 447.839983 86.2244682 475.512598 74.8325696"></polyline>
                <polyline id="SC_Lee" fill="#FFFFFF" opacity="0.319802989" points="418.847117 112.767016 430.56219 115.02487 435.137991 116.410371 440.79045 122.06784 446.276231 130.970934 445.584128 138.090888 441.828615 143.055595 443.853769 145.711133 454.940763 153.587929 455.466257 153.472488 466.207165 158.090825 463.784748 165.146584 446.699233 176.705262 444.712526 177.936773 400.877244 158.565494 398.570143 149.072222 400.300457 147.109491 403.543208 138.373108 402.966467 133.39559 402.440949 131.2532 406.26051 126.00625 418.847117 112.767016"></polyline>
                <polyline id="SC_Kershaw" fill="#FFFFFF" opacity="0.319802989" points="396.019472 74.2552717 418.847117 112.420692 418.847117 112.767016 406.26051 126.00625 402.440949 131.2532 402.966467 133.39559 403.543208 138.373108 400.300457 147.109491 398.570143 149.072222 382.099837 163.401879 369.038982 170.701423 345.826829 155.319846 349.466934 140.22042 337.328883 110.27828 353.337741 93.857525 354.081159 93.7933757 354.478514 99.1172866 358.759453 100.502765 367.885432 100.669567 383.163718 95.0634127 378.511001 86.3270751 396.019472 74.2552717"></polyline>
                <polyline id="SC_Sumter" fill="#FFFFFF" opacity="0.319802989" points="398.570143 149.072222 400.877244 158.565494 444.712526 177.936773 446.699233 176.705262 463.784748 165.146584 466.207165 158.090825 472.500526 174.11385 445.814807 196.782183 420.51343 212.959176 405.376129 236.384374 391.110454 221.990545 382.099837 163.401879 398.570143 149.072222"></polyline>
                <polyline id="SC_Calhoun" fill="#FFFFFF" opacity="0.319802989" points="334.560334 208.058618 341.648314 212.381832 362.630305 221.297806 373.435329 221.733971 391.110454 221.990545 405.376129 236.384374 412.822995 249.508144 411.323381 253.151476 397.352454 266.339418 393.122762 267.481133 347.55712 248.866697 334.97049 237.064233 345.929322 230.188111 349.63352 226.429246 347.723728 225.159232 343.968261 223.542848 336.931551 224.299691 334.842305 227.53255 331.445746 226.15986 331.16373 212.150949 331.381654 210.136813 334.560334 208.058618"></polyline>
                <polyline id="SC_Colleton" fill="#FFFFFF" opacity="0.319802989" points="383.02271 317.962029 408.22157 332.702205 408.849604 333.048574 413.169058 333.702833 422.423198 331.598947 439.124182 330.290429 439.470245 330.290429 441.07242 331.496317 441.713253 333.125581 444.661256 362.144099 445.071434 370.059376 442.059362 384.56867 447.147811 393.484575 455.286825 411.637201 461.144362 419.770595 463.733479 420.424876 464.771645 420.129776 464.951099 418.911076 464.771645 418.513392 463.207916 417.127891 464.707552 415.216406 473.205452 411.521714 474.29491 412.432593 474.359002 412.496742 464.361489 422.862343 463.554002 422.862343 452.223484 422.746856 444.430532 424.542854 390.713099 396.884213 347.262304 349.661754 382.099837 318.770278 383.02271 317.962029"></polyline>
                <polyline id="SC_Allendale" fill="#FFFFFF" opacity="0.319802989" points="347.262304 349.661754 331.996841 363.119082 330.445935 364.568732 328.600282 367.108806 326.229089 373.715566 325.831756 379.822011 324.729407 387.698853 318.961632 397.461511 313.014403 401.464047 310.399662 402.72125 284.124144 356.294183 272.793557 350.059416 281.29148 337.807999 294.006295 339.758032 306.708264 342.29806 317.744012 340.514875 329.830725 336.935669 347.262304 349.661754"></polyline>
                <polyline id="SC_Bamberg" fill="#FFFFFF" opacity="0.319802989" points="382.099837 318.770278 347.262304 349.661754 329.830725 336.935669 324.972931 331.445048 324.332097 329.058918 320.281836 295.242426 319.141109 289.392509 317.513334 284.825487 333.740024 292.009613 348.646578 297.089761 352.978855 298.590681 366.84722 305.826076 382.099837 318.770278"></polyline>
                <polyline id="SC_Orangeburg" fill="#FFFFFF" opacity="0.319802989" points="334.97049 237.064233 347.55712 248.866697 393.122762 267.481133 397.352454 266.339418 411.323381 253.151476 412.822995 249.508144 419.885374 257.949427 424.217628 262.105907 429.741856 265.762051 433.984395 267.134741 435.766024 267.314331 439.636853 266.557466 453.043771 262.157199 439.175429 295.883851 430.331443 297.269352 423.294756 295.588796 421.782297 294.780615 420.154521 292.291833 419.769989 291.073111 419.680273 289.302737 419.359834 287.955716 418.654885 286.980734 417.962737 286.403413 383.02271 317.962029 382.099837 318.770278 366.84722 305.826076 352.978855 298.590681 348.646578 297.089761 333.740024 292.009613 317.513334 284.825487 295.839171 279.694024 316.885278 249.097602 334.97049 237.064233"></polyline>
                <polyline id="SC_Barnwell" fill="#FFFFFF" opacity="0.319802989" points="317.513334 284.825487 319.141109 289.392509 320.281836 295.242426 324.332097 329.058918 324.972931 331.445048 329.830725 336.935669 317.744012 340.514875 306.708264 342.29806 294.006295 339.758032 281.29148 337.807999 272.793557 350.059416 249.735235 339.244861 295.839171 279.694024 317.513334 284.825487"></polyline>
                <polyline id="SC_Aiken" fill="#FFFFFF" opacity="0.319802989" points="259.220054 220.310012 259.796818 221.169507 265.462054 226.891103 284.008782 240.887248 287.174663 241.284909 292.032411 241.182302 295.108622 241.592775 303.593676 243.940447 316.885278 249.097602 295.839171 279.694024 249.735235 339.244861 236.879412 329.520729 227.907287 316.807456 224.664445 304.273841 215.500065 293.574682 209.027342 287.44259 207.860991 286.339264 249.927489 232.279163 259.220054 220.310012"></polyline>
                <polyline id="SC_Lexington" fill="#FFFFFF" opacity="0.319802989" points="282.445053 162.824604 298.453866 176.358847 302.440125 176.358847 307.45166 176.884853 312.488885 179.822611 324.844837 188.738562 327.100646 191.111857 332.189118 198.911716 332.650566 199.835383 334.560334 208.058618 331.381654 210.136813 331.16373 212.150949 331.445746 226.15986 334.842305 227.53255 336.931551 224.299691 343.968261 223.542848 347.723728 225.159232 349.63352 226.429246 345.929322 230.188111 334.97049 237.064233 316.885278 249.097602 303.593676 243.940447 295.108622 241.592775 292.032411 241.182302 287.174663 241.284909 284.008782 240.887248 265.462054 226.891103 259.796818 221.169507 259.220054 220.310012 267.615415 185.505726 282.445053 162.824604"></polyline>
                <polyline id="SC_Richland" fill="#FFFFFF" opacity="0.319802989" points="349.466934 140.22042 345.826829 155.319846 369.038982 170.701423 382.099837 163.401879 391.110454 221.990545 373.435329 221.733971 362.630305 221.297806 341.648314 212.381832 334.560334 208.058618 332.650566 199.835383 332.189118 198.911716 327.100646 191.111857 324.844837 188.738562 312.488885 179.822611 307.45166 176.884853 302.440125 176.358847 298.453866 176.358847 282.445053 162.824604 284.290775 155.499414 288.853708 155.832949 310.694479 155.319846 331.586686 145.890701 349.466934 140.22042"></polyline>
                <polyline id="SC_Fairfield" fill="#FFFFFF" opacity="0.319802989" points="335.303752 96.2308657 337.328883 110.27828 349.466934 140.22042 331.586686 145.890701 310.694479 155.319846 288.853708 155.832949 284.290775 155.499414 263.565108 115.768901 261.642562 102.99157 284.982878 100.669567 316.064944 98.1935963 335.303752 96.2308657"></polyline>
                <polyline id="SC_Newberry" fill="#FFFFFF" opacity="0.319802989" points="263.565108 115.768901 284.290775 155.499414 282.445053 162.824604 267.615415 185.505726 263.565108 186.544903 257.617902 185.159379 253.682911 183.709706 244.838971 178.680873 234.495418 174.344778 230.983406 173.369819 215.782104 177.231222 212.026614 181.451898 212.539308 183.940611 200.824258 174.280652 204.284909 166.185716 215.077087 147.917649 218.678815 144.338466 226.984414 128.251292 233.123898 113.857486 250.722131 124.030616 255.464541 117.74458 257.502494 116.743952 261.488708 115.640648 263.283138 115.602168 263.565108 115.768901"></polyline>
                <polyline id="SC_Saluda" fill="#FFFFFF" opacity="0.319802989" points="212.539308 183.940611 212.026614 181.451898 215.782104 177.231222 230.983406 173.369819 234.495418 174.344778 244.838971 178.680873 253.682911 183.709706 257.617902 185.159379 263.565108 186.544903 267.615415 185.505726 259.220054 220.310012 249.927489 232.279163 223.690349 227.53255 220.29379 225.505579 218.512161 223.953321 213.180119 210.765425 208.091692 211.291431 198.209495 215.281133 212.539308 183.940611"></polyline>
                <polyline id="SC_Edgefield" fill="#FFFFFF" opacity="0.319802989" points="198.209495 215.281133 208.091692 211.291431 213.180119 210.765425 218.512161 223.953321 220.29379 225.505579 223.690349 227.53255 249.927489 232.279163 207.860991 286.339264 205.617914 284.248235 192.262265 278.590812 180.354938 257.821128 179.098849 223.542848 193.185115 217.474837 198.209495 215.281133"></polyline>
                <polyline id="SC_McCormick" fill="#FFFFFF" opacity="0.319802989" points="193.185115 217.474837 179.098849 223.542848 180.354938 257.821128 192.262265 278.590812 176.445685 264.774257 170.959858 254.421513 162.461958 247.429858 158.885922 244.876926 147.093956 238.924448 146.4659 238.873134 144.543331 239.61721 143.684551 239.386305 123.240946 227.199015 117.575641 218.578118 125.150646 207.417194 130.85442 205.621128 135.891623 207.814855 137.391236 207.712225 146.119883 206.83985 152.759238 204.748821 159.411462 218.052181 169.921646 215.396574 178.342631 213.998307 192.672444 212.433192 193.185115 217.474837"></polyline>
                <polyline id="SC_Greenwood" fill="#FFFFFF" opacity="0.319802989" points="155.348332 146.301242 157.783641 148.841316 169.408998 157.333891 189.275862 167.686704 200.824258 174.280652 212.539308 183.940611 198.209495 215.281133 193.185115 217.474837 192.672444 212.433192 178.342631 213.998307 169.921646 215.396574 159.411462 218.052181 152.759238 204.748821 157.142784 199.835383 159.731833 196.307492 161.475038 191.625074 162.051779 186.762951 161.423746 182.080488 159.680609 177.590426 156.796699 173.767458 154.82286 171.907357 152.182451 170.008684 150.27266 169.251727 145.120095 159.01447 155.348332 146.301242"></polyline>
                <polyline id="SC_Laurens" fill="#FFFFFF" opacity="0.319802989" points="203.413375 108.071718 233.123898 113.857486 226.984414 128.251292 218.678815 144.338466 215.077087 147.917649 204.284909 166.185716 200.824258 174.280652 189.275862 167.686704 169.408998 157.333891 157.783641 148.841316 155.348332 146.301242 144.504862 135.371223 153.682064 125.313465 152.182451 116.923497 156.284004 97.7318082 159.629294 82.4656491 203.413375 108.071718"></polyline>
                <polyline id="SC_Abbeville" fill="#222222" opacity="0.319802989" points="144.504862 135.371223 155.348332 146.301242 145.120095 159.01447 150.27266 169.251727 152.182451 170.008684 154.82286 171.907357 156.796699 173.767458 159.680609 177.590426 161.423746 182.080488 162.051779 186.762951 161.475038 191.625074 159.731833 196.307492 157.142784 199.835383 152.759238 204.748821 146.119883 206.83985 137.391236 207.712225 135.891623 207.814855 130.85442 205.621128 125.150646 207.417194 117.575641 218.578118 93.5431997 188.918198 144.504862 135.371223"></polyline>
                <polyline id="SC_Anderson" fill="#FFFFFF" opacity="0.319802989" points="70.7282641 122.478336 113.410018 83.4405858 119.652041 108.071718 120.113489 109.521369 122.433413 114.845257 128.380642 124.723356 144.504862 135.371223 93.5431997 188.918198 88.4546817 175.666153 74.1377145 155.499414 69.6388061 148.546262 69.6900756 148.097262 68.3057785 147.045296 65.4731832 146.237093 60.6282349 146.878517 55.2449234 148.212704 55.1295844 148.264064 53.6299711 149.020907 70.7282641 122.478336"></polyline>
                <polyline id="SC_Union" fill="#FFFFFF" opacity="0.319802989" points="214.500369 52.8569984 223.741664 54.0756977 241.826922 54.8839467 244.428816 55.640858 246.043814 56.5132106 250.273552 59.7332123 247.902359 63.0943013 261.642562 102.99157 263.565108 115.768901 263.283138 115.602168 261.488708 115.640648 257.502494 116.743952 255.464541 117.74458 250.722131 124.030616 233.123898 113.857486 203.413375 108.071718 205.425682 90.0859171 206.822734 66.7376563 211.103764 58.5786165 214.500369 52.8569984"></polyline>
                <polyline id="SC_Chesterfield" fill="#FFFFFF" opacity="0.319802989" points="402.312742 39.6049532 454.774154 31.9975425 475.512598 74.8325696 447.839983 86.2244682 418.847117 112.420692 396.019472 74.2552717 370.154109 44.3772579 402.312742 39.6049532"></polyline>
                <polyline id="SC_Lancaster" fill="#FFFFFF" opacity="0.319802989" points="317.397926 9.14964149 328.138857 20.1309985 337.610876 29.6755165 338.533726 46.558128 338.597818 48.1232426 341.315097 48.6363912 370.154109 44.3772579 396.019472 74.2552717 378.511001 86.3270751 383.163718 95.0634127 367.885432 100.669567 358.759453 100.502765 354.478514 99.1172866 354.081159 93.7933757 353.337741 93.857525 337.328883 110.27828 335.303752 96.2308657 330.343442 81.5291244 330.510073 75.8717012 332.419796 69.0468478 329.523154 60.7210062 326.639221 53.3188093 325.1909 51.0610011 317.397926 9.14964149"></polyline>
                <polyline id="SC_Chester" fill="#FFFFFF" opacity="0.319802989" points="325.1909 51.0610011 326.639221 53.3188093 329.523154 60.7210062 332.419796 69.0468478 330.510073 75.8717012 330.343442 81.5291244 335.303752 96.2308657 316.064944 98.1935963 284.982878 100.669567 261.642562 102.99157 247.902359 63.0943013 325.1909 51.0610011"></polyline>
                <polyline id="SC_York" fill="#FFFFFF" opacity="0.319802989" points="259.220054 3.77439289 297.338762 0.297839744 317.397926 9.14964149 325.1909 51.0610011 247.902359 63.0943013 250.273552 59.7332123 247.774151 55.0635373 243.44192 43.6716614 241.314227 29.0982644 241.365474 28.1745741 250.15819 9.67560167 254.016174 4.28754148 259.220054 3.77439289"></polyline>
                <polyline id="SC_Cherokee" fill="#FFFFFF" opacity="0.319802989" points="200.362833 9.95784481 254.016174 4.28754148 250.15819 9.67560167 241.365474 28.1745741 241.314227 29.0982644 243.44192 43.6716614 247.774151 55.0635373 250.273552 59.7332123 246.043814 56.5132106 244.428816 55.640858 241.826922 54.8839467 223.741664 54.0756977 214.500369 52.8569984 207.69436 49.2136662 200.478195 34.2553734 186.148382 11.4074953 200.362833 9.95784481"></polyline>
                <polyline id="SC_Spartanburg" fill="#FFFFFF" opacity="0.319802989" points="173.484882 12.7929965 186.148382 11.4074953 200.478195 34.2553734 207.69436 49.2136662 214.500369 52.8569984 211.103764 58.5786165 206.822734 66.7376563 205.425682 90.0859171 203.413375 108.071718 159.629294 82.4656491 147.786082 73.0365267 147.273433 71.7151976 144.261361 45.8140283 140.441778 16.2054232 173.484882 12.7929965"></polyline>
                <polyline id="SC_Greenville" fill="#163AB9" points="121.754087 17.0649642 140.441778 16.2054232 144.261361 45.8140283 147.273433 71.7151976 147.786082 73.0365267 159.629294 82.4656491 156.284004 97.7318082 152.182451 116.923497 153.682064 125.313465 144.504862 135.371223 128.380642 124.723356 122.433413 114.845257 120.113489 109.521369 119.652041 108.071718 113.410018 83.4405858 114.063698 82.6324281 112.961417 77.0262741 111.513027 73.1520136 101.951293 52.1642363 95.9656168 44.7620851 70.5488554 47.7127009 94.2352569 31.5228515 121.754087 17.0649642"></polyline>
            </g>
        </g>
    </g>
</svg>